# xmcd
#
# Track frame offsets: 
#        150
#        10727
#        20880
#        31525
#        43031
#        56342
#        68412
#        80941
#        92767
#        103576
#        116458
#        128673
#        140623
#        151427
#        163354
#        173735
#        186406
#        196815
#        207825
#        218310
#        229291
#        239837
#        252591
#        254294
#        261546
#        264750
#        269791
#        274369
#        280898
#        288896
#        292198
#        301297
#        307697
#
# Disc length: 4200 seconds
#
# Revision: 0
# Processed by: cddbd v1.5.2PL0 Copyright (c) Steve Scherf et al.
# Submitted via: ExactAudioCopy v0.99pb4
#
DISCID=ef106621
DTITLE=Eddie Noack - Gentlemen Prefer Blondes - Disc 1
DYEAR=1900
DGENRE=Country
TTITLE0=Gentlemen Prefer Blondes
TTITLE1=Triflin' Mama Blues
TTITLE2=Pyramid Club
TTITLE3=Simulated Diamonds
TTITLE4=Hungry But Happy
TTITLE5=Raindrops In The River
TTITLE6=Frown On The Moon
TTITLE7=Unlucky Me
TTITLE8=Green Back Dollar
TTITLE9=Tragic Love
TTITLE10=I Can't Run Away
TTITLE11=I'd Still Want You
TTITLE12=Music Makin' Mama From Memphis
TTITLE13=Please Mr. Postman
TTITLE14=There's A Place In My Heart
TTITLE15=I'm Going To See My Baby
TTITLE16=Too Hot To Handle
TTITLE17=How Does It Feel To Be A Winner
TTITLE18=Nothing
TTITLE19=First And Last Thing
TTITLE20=(As The Band Played) Paul Jones
TTITLE21=Pride
TTITLE22=Spoken Message To Don Pierce
TTITLE23=Don't Worry 'Bout Me Baby
TTITLE24=As Long As You Call
TTITLE25=Forlorn, Forgotten, and Forsaken
TTITLE26=Walking The Street
TTITLE27=Simulated Diamonds
TTITLE28=Moonlight On The Water
TTITLE29=Hungry But Happy
TTITLE30=Raindrops In The River
TTITLE31=Gentlemen Prefer Blondes
TTITLE32=Unlucky Me
EXTD=
EXTT0=
EXTT1=
EXTT2=
EXTT3=
EXTT4=
EXTT5=
EXTT6=
EXTT7=
EXTT8=
EXTT9=
EXTT10=
EXTT11=
EXTT12=
EXTT13=
EXTT14=
EXTT15=
EXTT16=
EXTT17=
EXTT18=
EXTT19=
EXTT20=
EXTT21=
EXTT22=
EXTT23=
EXTT24=
EXTT25=
EXTT26=
EXTT27=
EXTT28=
EXTT29=
EXTT30=
EXTT31=
EXTT32=
PLAYORDER=
